<?xml version="1.0" encoding="iso-8859-1"?>
<!-- Uploaded to: SVG Repo, www.svgrepo.com, Generator: SVG Repo Mixer Tools -->
<svg height="800px" width="800px" version="1.1" id="Layer_1" xmlns="http://www.w3.org/2000/svg" xmlns:xlink="http://www.w3.org/1999/xlink" 
	 viewBox="0 0 440 440" xml:space="preserve">
<path style="fill:#2FB4C2;" d="M324,176c0-57.6-46.4-104-104-104l0,0c-57.6,0-104,46.4-104,104c0,29.6,12,56,32,75.2v-29.6
	c0-16,7.2-31.2,20-40l3.2-2.4c8.8-6.4,20-10.4,31.2-10.4H220h17.6c11.2,0,22.4,4,31.2,10.4l3.2,2.4c12.8,9.6,20,24.8,20,40v29.6
	C312,232,324,205.6,324,176z M220,160c-22.4,0-40-17.6-40-40s17.6-40,40-40s40,17.6,40,40S242.4,160,220,160z"/>
<path style="fill:#FF9900;" d="M380,176c0,79.2-131.2,216-160,244.8C191.2,392,60,255.2,60,176c0-88,72-160,160-160S380,88,380,176z
	 M340,176c0-66.4-53.6-120-120-120s-120,53.6-120,120c0,39.2,19.2,73.6,48,96l0,0l0,0c20,15.2,44.8,24,72,24s52-8.8,72-24l0,0l0,0
	C320.8,249.6,340,215.2,340,176z"/>
<path style="fill:#FF7D00;" d="M380,176c0,79.2-131.2,216-160,244.8C191.2,392,60,255.2,60,176c0-88,72-160,160-160S380,88,380,176z
	 M340,176c0-66.4-53.6-120-120-120s-120,53.6-120,120c0,39.2,19.2,73.6,48,96l0,0l0,0c20,15.2,44.8,24,72,24s52-8.8,72-24l0,0l0,0
	C320.8,249.6,340,215.2,340,176z"/>
<g>
	<path style="fill:#FF9900;" d="M100,176c0-66.4,53.6-120,120-120s120,53.6,120,120c0-88-53.6-160-120-160S100,88,100,176z"/>
	<path style="fill:#FF9900;" d="M100,176c0,4,0,7.2,0.8,11.2C100,184,100,180,100,176z"/>
	<path style="fill:#FF9900;" d="M340,176c0,4,0,8-0.8,11.2C340,183.2,340,180,340,176z"/>
	<path style="fill:#FF9900;" d="M336.8,202.4c0.8-2.4,0.8-4.8,1.6-7.2C337.6,197.6,337.6,200,336.8,202.4z"/>
	<path style="fill:#FF9900;" d="M103.2,202.4c-0.8-2.4-0.8-4.8-1.6-7.2C102.4,196.8,102.4,200,103.2,202.4z"/>
	<path style="fill:#FF9900;" d="M292,272L292,272L292,272c-20,15.2-44.8,24-72,24s-52-8.8-72-24l0,0l0,0c-21.6-16-37.6-39.2-44-66.4
		c17.6,80,96.8,189.6,116,215.2c19.2-25.6,98.4-136,116-215.2C329.6,232,313.6,255.2,292,272z"/>
</g>
<circle style="fill:#D9CDC1;" cx="220" cy="120" r="24"/>
<path style="fill:#FFF8EF;" d="M204,128c0,4.8,1.6,8.8,3.2,12.8c4,2.4,8,3.2,12.8,3.2c13.6,0,24-11.2,24-24c0-4.8-1.6-8.8-3.2-12.8
	c-4-2.4-8-3.2-12.8-3.2C214.4,104,204,114.4,204,128z"/>
<path style="fill:#D9CDC1;" d="M276,221.6V264c-16,10.4-35.2,16.8-56,16.8s-40-6.4-56-16.8v-42.4c0-10.4,4.8-20.8,13.6-27.2l3.2-2.4
	c6.4-4.8,13.6-7.2,21.6-7.2h35.2c8,0,15.2,2.4,21.6,7.2l3.2,2.4C271.2,200,276,210.4,276,221.6z"/>
<path style="fill:#FFF8EF;" d="M262.4,209.6l-3.2-2.4c-6.4-4.8-13.6-7.2-21.6-7.2h-35.2c-8,0-15.2,2.4-21.6,7.2l-3.2,2.4
	c-8.8,6.4-13.6,16.8-13.6,27.2v26.4c16,10.4,35.2,16.8,56,16.8s40-6.4,56-16.8v-26.4C276,226.4,271.2,216,262.4,209.6z"/>
<g>
	<path style="fill:#42210B;" d="M260,120c0,22.4-17.6,40-40,40s-40-17.6-40-40s17.6-40,40-40S260,97.6,260,120z M220,144
		c13.6,0,24-11.2,24-24s-10.4-24-24-24c-12.8,0-24,11.2-24,24S207.2,144,220,144z"/>
	<path style="fill:#42210B;" d="M292,272c-20,15.2-44.8,24-72,24s-52-8.8-72-24l0,0l0,0c-28.8-21.6-48-56.8-48-96
		c0-66.4,53.6-120,120-120s120,53.6,120,120C340,215.2,320.8,249.6,292,272L292,272L292,272z M220,72c-57.6,0-104,46.4-104,104
		c0,29.6,12,56,32,75.2v-29.6c0-16,7.2-31.2,20-40l3.2-2.4c8.8-6.4,20-10.4,31.2-10.4H220h17.6c11.2,0,22.4,4,31.2,10.4l3.2,2.4
		c12.8,9.6,20,24.8,20,40v29.6c20-19.2,32-45.6,32-75.2C324,118.4,277.6,72,220,72L220,72z M164,263.2c16,10.4,35.2,16.8,56,16.8
		s40-6.4,56-16.8v-42.4c0-10.4-4.8-20.8-13.6-27.2l-3.2-2.4c-6.4-4.8-13.6-7.2-21.6-7.2h-35.2c-8,0-15.2,2.4-21.6,7.2l-3.2,2.4
		c-8.8,6.4-13.6,16.8-13.6,28V263.2z"/>
	<path style="fill:#42210B;" d="M396,176c0,95.2-163.2,255.2-170.4,261.6c-1.6,1.6-3.2,2.4-5.6,2.4s-4-0.8-5.6-2.4
		C207.2,431.2,44,271.2,44,176C44,79.2,123.2,0,220,0S396,79.2,396,176z M220,420.8C248.8,392,380,255.2,380,176
		c0-88-72-160-160-160S60,88,60,176C60,255.2,191.2,392,220,420.8z"/>
</g>
</svg>