<svg width="63" height="63" viewBox="0 0 63 63" fill="none" xmlns="http://www.w3.org/2000/svg"><g clip-path="url(#a)"><path d="M48.255 62.625a4.47 4.47 0 1 0 0-8.941 4.47 4.47 0 0 0 0 8.94Z" fill="url(#b)"/><path d="M45.949 56.77a.91.91 0 0 0 .638-.248c.355-.355.355-.923 0-1.242l-8.125-8.125c-.355-.355-.923-.355-1.242 0-.355.355-.355.922 0 1.242l8.126 8.125a.856.856 0 0 0 .603.248Z" fill="url(#c)"/><path d="M26.256 17.173a.878.878 0 0 1-.887-.887V4.577c0-.497.39-.887.887-.887s.887.39.887.887v11.709c0 .461-.39.887-.887.887Z" fill="url(#d)"/><path d="M26.256 16.286c-10.75 0-19.479 8.729-19.479 19.48 0 10.75 8.729 19.479 19.48 19.479 10.75 0 19.479-8.729 19.479-19.48 0-10.75-8.729-19.479-19.48-19.479Zm6.387 31.224c-6.564 0-11.85-5.322-11.85-11.851 0-6.529 5.322-11.886 11.85-11.886 6.529 0 11.851 5.322 11.851 11.85 0 6.53-5.287 11.887-11.85 11.887Z" fill="url(#e)"/><path d="M32.714 23.773c-3.69 0-6.99 1.632-9.154 4.257 1.064-.497 2.235-.745 3.477-.745 4.613.036 8.338 3.761 8.338 8.374-.035 4.648-3.796 8.373-8.409 8.338a8.385 8.385 0 0 1-3.406-.745c2.164 2.59 5.428 4.258 9.048 4.258 6.564.035 11.886-5.252 11.921-11.816.036-6.564-5.25-11.886-11.815-11.922Z" fill="#0E314F"/><path d="M6.387 57.125a.91.91 0 0 1-.639-.248c-.355-.355-.355-.923 0-1.242l8.48-8.48c.355-.355.923-.355 1.242 0 .355.355.355.922 0 1.242l-8.48 8.48a.856.856 0 0 1-.603.248Z" fill="url(#f)"/><path d="M4.47 62.625a4.47 4.47 0 1 0 0-8.941 4.47 4.47 0 0 0 0 8.94Z" fill="url(#g)"/><path d="M26.256 8.941a4.47 4.47 0 1 0 0-8.941 4.47 4.47 0 0 0 0 8.941Z" fill="url(#h)"/></g><defs><radialGradient id="b" cx="0" cy="0" r="1" gradientUnits="userSpaceOnUse" gradientTransform="translate(49.403 56.732) scale(5.26354)"><stop offset=".002" stop-color="#11A5E1"/><stop offset=".213" stop-color="#11A0DE"/><stop offset=".453" stop-color="#1392D3"/><stop offset=".708" stop-color="#157CC2"/><stop offset=".972" stop-color="#195CAB"/><stop offset="1" stop-color="#1958A8"/></radialGradient><radialGradient id="e" cx="0" cy="0" r="1" gradientUnits="userSpaceOnUse" gradientTransform="translate(29.716 33.156) scale(22.1996)"><stop offset=".002" stop-color="#11A5E1"/><stop offset=".246" stop-color="#11A1DE"/><stop offset=".467" stop-color="#1396D6"/><stop offset=".678" stop-color="#1484C9"/><stop offset=".883" stop-color="#176AB6"/><stop offset="1" stop-color="#1958A8"/></radialGradient><radialGradient id="g" cx="0" cy="0" r="1" gradientUnits="userSpaceOnUse" gradientTransform="translate(5.608 57.087) scale(5.14904)"><stop offset=".002" stop-color="#11A5E1"/><stop offset=".246" stop-color="#11A1DE"/><stop offset=".467" stop-color="#1396D6"/><stop offset=".678" stop-color="#1484C9"/><stop offset=".883" stop-color="#176AB6"/><stop offset="1" stop-color="#1958A8"/></radialGradient><radialGradient id="h" cx="0" cy="0" r="1" gradientUnits="userSpaceOnUse" gradientTransform="translate(27.794 3.095) scale(5.34891)"><stop offset=".002" stop-color="#11A5E1"/><stop offset=".246" stop-color="#11A1DE"/><stop offset=".467" stop-color="#1396D6"/><stop offset=".678" stop-color="#1484C9"/><stop offset=".883" stop-color="#176AB6"/><stop offset="1" stop-color="#1958A8"/></radialGradient><linearGradient id="c" x1="42.561" y1="51.199" x2="41.297" y2="52.463" gradientUnits="userSpaceOnUse"><stop offset=".001" stop-color="#11A5E1"/><stop offset=".503" stop-color="#1580C6"/><stop offset="1" stop-color="#1958A8"/></linearGradient><linearGradient id="d" x1="25.37" y1="10.424" x2="27.143" y2="10.424" gradientUnits="userSpaceOnUse"><stop offset="0" stop-color="#1958A8"/><stop offset=".497" stop-color="#1580C6"/><stop offset=".999" stop-color="#11A5E1"/></linearGradient><linearGradient id="f" x1="9.976" y1="51.379" x2="11.23" y2="52.632" gradientUnits="userSpaceOnUse"><stop offset="0" stop-color="#1958A8"/><stop offset=".497" stop-color="#1580C6"/><stop offset=".999" stop-color="#11A5E1"/></linearGradient><clipPath id="a"><path fill="#fff" d="M0 0h196v62.589H0z"/></clipPath></defs></svg>